<?xml version="1.0" encoding="utf-8"?>
<!-- Generator: Adobe Illustrator 23.0.1, SVG Export Plug-In . SVG Version: 6.00 Build 0)  -->
<svg version="1.1" id="Layer_1" xmlns="http://www.w3.org/2000/svg" xmlns:xlink="http://www.w3.org/1999/xlink" x="0px" y="0px"
	 viewBox="0 0 480.9 197.6" style="enable-background:new 0 0 480.9 197.6;" xml:space="preserve">
<style type="text/css">
	.st0{fill:#008184;}
	.st1{fill:#7FCBCD;}
	.st2{fill:#E67E22;}
	.st3{fill:#F1C40F;}
	.st4{fill:#9E846D;}
</style>
<title>Arduino_DAY2018_Logotype</title>
<g id="LOGO">
	<path class="st0" d="M318.3,153.1l7.4-23.6h6.6l7.5,23.6h-6.2l-1.3-4.8h-6.8l-1.2,4.8H318.3z M328.8,135l-2.1,8.7h4.5L328.8,135z"
		/>
	<path class="st0" d="M343.6,129.4h9.5c6.5,0,9,3.3,9,7.9c0,3.2-1.3,5.7-3.9,7.1l4.6,8.7H356l-3.6-7.5h-2.9v7.5h-5.9V129.4z
		 M355.9,137.4c0-2.1-0.8-3.2-3.5-3.2h-3v6.7h3.1C354.6,140.9,355.9,140,355.9,137.4L355.9,137.4z"/>
	<path class="st0" d="M366.9,129.4h7.7c8.8,0,11.8,4.2,11.8,11.6c0,5.6-1.7,12-11.7,12h-7.8L366.9,129.4L366.9,129.4z M372.7,134.2
		v14h2.2c4.8,0,5.2-2.9,5.2-6.9c0-4.6-0.5-7.1-5.7-7.1H372.7z"/>
	<path class="st0" d="M403.7,129.4h5.6V145c0,7-5.3,8.5-9.5,8.5c-4,0-9.2-1.3-9.2-8.5v-15.5h5.9v14.4c0,3.9,1.4,4.8,3.6,4.8
		c2.7,0,3.6-1.2,3.6-4.8L403.7,129.4z"/>
	<path class="st0" d="M414.6,148.2h6.1v-14h-6.1v-4.8h18.1v4.8h-6.1v14h6.1v4.8h-18.1L414.6,148.2z"/>
	<path class="st0" d="M443,153.1h-5.5v-23.6h6.4l7.7,14.2v-14.2h5.5v23.6h-5.9L443,138L443,153.1z"/>
	<path class="st0" d="M480.9,141.3c0,6.8-2.5,12.2-10.1,12.2c-6.8,0-9.9-4.1-9.9-11.9c0-7.1,2.7-12.4,9.9-12.4
		C477.5,129.1,480.9,132.2,480.9,141.3z M474.7,141.3c0-5.8-0.5-7.4-3.9-7.4c-3.1,0-3.7,1.9-3.7,7.6c0,4.8,0.3,7.2,3.7,7.2
		C474.2,148.7,474.7,146.7,474.7,141.3z"/>
	<g>
		<path class="st1" d="M132,47.9l0.9-1.6c-7.7-4.2-16.1-7-24.8-8.3c-3.4-0.5-6.9-0.7-10.4-0.7c-27.6,0-52.3,16.6-61.4,41.3l8.9,3.3
			c7.8-21,28.9-35.1,52.6-35.1c3,0,6,0.2,9,0.6c16,2.3,31.4,11,45.8,26l5.2-5C150.3,60.2,141.6,53.3,132,47.9z"/>
		<path class="st1" d="M67.2,158.5C43.4,147.5,28,124.1,28,98.9c0-12.7,3.7-25.1,10.8-35.6c2.7-4.1,5.9-7.8,9.4-11.2l4.4,4.6
			c-3.2,3.1-6.1,6.5-8.5,10.2c-6.3,9.5-9.7,20.7-9.7,32.1c0,23,13.6,43.7,35.5,53.9L67.2,158.5z"/>
		<path class="st1" d="M183.1,106.7l-2.7-6.4c-0.2-0.5-0.6-1.2-1-1.9c-4.8,9.1-30,53.4-71.5,59.3c-3.4,0.5-6.9,1.6-10.2,1.6
			c-9.5,0-18.9-2-27.5-6l-3.2,5.8c9.6,4.5,20.1,6.8,30.7,6.7c3.7,0,7.4-0.3,11.1-0.8c40-5.7,65.3-42.3,74.6-58.4L183.1,106.7z"/>
		<path class="st2" d="M191.9,137.6c-7.7,10.5-16.6,20.1-26.7,28.4l2.3,2.9c9.9-8.2,18.8-17.5,26.4-27.8
			c16.5,22.5,44,49.2,83.8,54.9l0.9-6.6c-40.7-5.8-68-34.6-84.2-59.1C193.8,129,191.9,137.6,191.9,137.6z"/>
		<path class="st3" d="M298.2,165c-5.3,0.3-10.7,0.1-16-0.6c-12.2-1.7-24.1-6.6-35.2-14.5l-3.5,4.9c11.9,8.4,24.7,13.7,37.8,15.6
			c3.9,0.6,7.9,0.9,11.9,0.9c1.7,0,3.3-0.1,4.9-0.2V165z"/>
		<path class="st2" d="M186.3,105.3l-3.2,1.4l-2.7-6.4c-6.1-11.6-13.7-22.4-22.6-32l-5.2,5c8,8.3,14.9,17.7,20.4,27.8l9.6,16.8
			l8.2-4.7L186.3,105.3z"/>
		<path class="st1" d="M293.3,159.7c-3.4,0-6.9-0.2-10.3-0.7c-42.8-6.1-67.9-49.6-72.4-58.2l6.6-3.5c2.6,5,26.8,48.6,66.9,54.3
			c3,0.4,6.1,0.7,9.2,0.7L293.3,159.7z"/>
		<path class="st0" d="M352.9,82.2c-2.9-9.4-8.2-17.9-15.4-24.7c-9.5-9.1-21.7-14.9-34.7-16.7l1.2-8.5c14.8,2,28.6,8.7,39.5,19
			c8.2,7.8,14.3,17.6,17.7,28.4L352.9,82.2z"/>
		<path class="st0" d="M238.3,54.9l-4-4.6c14.6-12.8,30.4-20.5,47.1-22.9c3.9-0.6,7.9-0.8,11.9-0.8c19.9-0.2,39.1,7.4,53.6,21.1
			l-4.2,4.4c-13.3-12.6-31-19.6-49.4-19.4c-3.7,0-7.4,0.3-11,0.8C266.8,35.8,252,43,238.3,54.9z"/>
		<path class="st3" d="M207.2,114.6L186,104.5l5.1-10.6c3.3-6.9,15.7-30.9,37.5-50.1l8.8-7.8l15.5,17.7l-8.8,7.8
			c-18.9,16.6-29.8,38.3-31.8,42.5L207.2,114.6z"/>
		<path class="st0" d="M27.3,127.3c-12-27.4-5.4-59.4,16.3-80c5-4.8,10.7-8.9,16.8-12.2l3.5,6.5c-5.5,2.9-10.7,6.6-15.2,11
			c-19.5,18.4-25.4,47.1-14.7,71.7L27.3,127.3z"/>
		<path class="st3" d="M52.6,56.7l-4.4-4.6c13.4-12.7,31.1-19.6,49.5-19.5c13.1,0,25.9,3.3,37.3,9.6l-3.1,5.7
			c-10.5-5.8-22.3-8.9-34.3-8.9C81,38.9,64.8,45.2,52.6,56.7z"/>
		<path class="st3" d="M8.7,98.9H4.7c0-24.1,9.9-47.1,27.4-63.6l2.7,2.8C18.1,53.9,8.6,75.9,8.7,98.9z"/>
		<path class="st0" d="M163.9,31.9C148,19.2,130.6,11.5,112.2,8.8c-4.8-0.7-9.7-1-14.5-1c-18.8-0.1-37.2,5.3-53,15.5l-2.9-4.4
			C58.5,8.2,77.9,2.5,97.7,2.6c5.1,0,10.2,0.4,15.3,1.1c19.4,2.8,37.6,10.9,54.2,24.1L163.9,31.9z"/>
		<path class="st0" d="M200.6,65.8l-10.3-7.3C206.8,35.2,235.3,6,277.5,0l1.8,12.5C241.6,17.9,215.7,44.5,200.6,65.8z"/>
		<path class="st1" d="M212.5,67.3l-7.3-5.5c14.4-19.1,39.1-42.9,74.3-48c4.6-0.7,9.2-1,13.8-1c11.7,0,23.3,2.2,34.2,6.4l-3.4,8.5
			c-9.8-3.9-20.3-5.8-30.8-5.8c-4.2,0-8.4,0.3-12.5,0.9C248.6,27.5,225.9,49.6,212.5,67.3z"/>
		<path class="st1" d="M197.7,82.2l-10.2-4.2l3-7.5l0.3-0.4c13.2-20.9,42.1-56.9,87.6-63.4c4.9-0.7,9.9-1.1,14.8-1.1v11
			c-4.4,0-8.9,0.3-13.3,0.9c-38.8,5.5-64.7,34.5-79.6,57.9L197.7,82.2z"/>
		<path class="st1" d="M197.6,70.9l-5.3-6.5C184.1,52.6,174.2,42,163,32.9l4.9-6.1c11.7,9.5,22,20.6,30.7,33l5,6.2L197.6,70.9z"/>
		<path class="st2" d="M359.9,34.2c-18-17.1-41.8-26.5-66.6-26.4c-4.9,0-9.7,0.3-14.5,1L278,3.7c5.1-0.7,10.2-1.1,15.3-1.1
			c26.1-0.2,51.3,9.8,70.2,27.8L359.9,34.2z"/>
		<path class="st0" d="M111,180.1l-1.9-13.3c53.4-7.6,80-69.8,80.2-70.4c1.2-2.8,29.7-69.9,90.7-78.6l1.9,13.3
			c-53.5,7.6-79.9,69.8-80.2,70.4C200.5,104.4,172,171.4,111,180.1z"/>
		<path class="st0" d="M54.9,166.6l5.9-10.1c14.6,8.4,31.5,11.6,48.1,9l1.7,11.5c11.4-1.7,22.4-5.5,32.4-11.4l-9.8-17
			c-10.8,6.3-23,9.7-35.5,9.7C81,158.5,65,152.2,53,140.8c-5.6-5.4-10.2-11.8-13.3-18.9l-16.8,7.4c4.1,9.3,10,17.8,17.4,24.8
			l-0.8,0.9C44.1,159.4,49.3,163.3,54.9,166.6z"/>
		<path class="st0" d="M97.7,183.1c-23,0.2-45.1-8.6-61.8-24.4l3.7-3.9c15.7,14.9,36.5,23.1,58.1,23c4.3,0,8.6-0.3,12.8-0.9
			c44-6.3,70.6-43.5,82.6-65.3l3-7.2l4.9,2.1l-3.2,7.6c-12.4,22.6-40.2,61.5-86.6,68.1C106.7,182.8,102.2,183.1,97.7,183.1z"/>
		<path class="st0" d="M97.7,197.6c-26.7,0.2-52.5-10-71.8-28.5l6.8-7.1c17.5,16.7,40.8,25.9,65,25.7c4.8,0,9.5-0.3,14.2-1
			c18.3-2.6,35.6-10.4,51.4-23.2l6.2,7.6c-17.1,13.9-36,22.4-56.2,25.3C108.1,197.2,102.9,197.6,97.7,197.6z"/>
		<path class="st3" d="M112.3,189.8l-1.2-8.5c39.5-5.6,65.7-35.1,80.7-58.8c0.5-0.8,4.5-7.8,6-10.7l7.6,4
			c-1.7,3.3-6.1,10.8-6.2,11.1l-0.1,0.1C183.2,152.3,155.2,183.7,112.3,189.8z"/>
		<path class="st1" d="M55.2,166.1c-24.6-14.3-39.3-39.4-39.3-67.1c0-4,0.3-8.1,0.9-12l6.1,1c-0.6,3.7-0.9,7.4-0.9,11.1
			c0,25.5,13.6,48.6,36.3,61.8L55.2,166.1z"/>
		<path class="st2" d="M25.7,88.3L14,86.5c3.4-21.3,15.3-40.3,33-52.7c18.2-13,40.8-18.4,63.8-15.1c5.2,0.7,10.3,1.9,15.3,3.6
			l-3.7,11.2c-4.3-1.4-8.8-2.5-13.3-3.1C68.4,24.5,31.8,50,25.7,88.3z"/>
		<path class="st3" d="M24.2,170.9c-10.6-10-18.8-22.3-24.2-35.8l13.7-5.4c4.6,11.6,11.6,22,20.6,30.6L24.2,170.9z"/>
		<path class="st1" d="M97.7,190.8c-25,0.2-49.1-9.4-67.2-26.6C14.3,148.9,4.4,128,2.7,105.7l0-0.2l-0.2-6.5l8.6-0.3l0.2,6.4
			c1.6,20.1,10.6,39,25.2,52.9c16.5,15.7,38.5,24.4,61.2,24.2c4.5,0,9-0.3,13.5-1l1.2,8.5C107.5,190.5,102.6,190.8,97.7,190.8z"/>
		<path class="st3" d="M137.1,160.9l-2.7-4.6l2.3-1.3c30.3-17.4,47.2-50.6,50.3-57.1l1.1-2.4l4.8,2.3l-1.1,2.4
			c-3.2,6.7-20.8,41.3-52.4,59.4L137.1,160.9z"/>
		<path class="st0" d="M203.9,95.4c-1.7-4-3.7-7.9-5.8-11.7l1.4-0.8c-12.6-22.9-40.8-62.4-88-69.1c-4.6-0.7-9.2-1-13.8-1V22
			c4.2,0,8.4,0.3,12.5,0.9c4.9,0.7,9.8,1.8,14.6,3.4l-3.3,10.2c43.5,14.3,65.4,65.5,65.6,66c1.2,2.9,30.2,71.1,92.6,80l2.6-18.1
			C230.3,156.9,204.2,96,203.9,95.4z"/>
		<path class="st3" d="M375.7,98.9h-7.4c-0.1-20.4-9-39.8-24.5-53.1c-16.7-14.5-39.4-21-62.3-17.7l-1-7.3c25-3.6,49.8,3.5,68.2,19.4
			C365.7,55,375.6,76.4,375.7,98.9z"/>
		<rect x="88.4" y="68.1" class="st3" width="19.9" height="61.7"/>
		<rect x="67.5" y="89" class="st0" width="61.7" height="19.9"/>
		<path class="st1" d="M393.9,107.9l-7.9-0.7c0.3-2.7,0.4-5.5,0.4-8.3c0-24.1-9.9-47.2-27.5-63.8l5.5-5.7
			c19.1,18.1,29.9,43.2,29.9,69.5C394.3,101.9,394.2,105,393.9,107.9z"/>
		<path class="st0" d="M366.9,112.5l-5.1-1c4.3-21.9-2.9-44.4-19.1-59.7l3.6-3.8C363.8,64.5,371.5,88.9,366.9,112.5
			C366.9,112.5,366.9,112.5,366.9,112.5z"/>
		<path class="st2" d="M357.9,113.8l-11.9-3c1-3.9,1.5-7.8,1.5-11.8c0-28-24.3-50.9-54.2-50.9c-3,0-5.9,0.2-8.8,0.6
			c-0.8,0.1-1.6,0.2-2.3,0.4L279.9,37c0.9-0.2,1.9-0.3,2.8-0.5c3.5-0.5,7-0.8,10.6-0.8c36.6,0,66.5,28.3,66.5,63.1
			C359.7,103.9,359.1,108.9,357.9,113.8z"/>
		<path class="st0" d="M259.7,50.8l-1.4-2.5c-28.1,15.6-44.6,46.1-47.6,52.1l-3,6.1l-3.2-1.5l-1.3,2.9l11.2,5l5-11.2
			c2.9-5.5,25.8-45.8,62.7-52.6l-1.1-6C273.5,44.5,266.3,47.1,259.7,50.8z"/>
		<path class="st1" d="M293.3,185.9c-4.7,0-9.4-0.3-14-1c-20.8-3-40.1-12.6-57.4-28.7l7.5-8.1c15.6,14.5,32.9,23.2,51.4,25.9
			c4.9,0.7,9.9,1,14.8,0.9l0.3,11C295.1,185.9,294.2,185.9,293.3,185.9z"/>
	</g>
</g>
<g id="TITLE">
	<g>
		<path class="st4" d="M319.7,163.8h7.9c9,0,12,4.3,12,11.8c0,5.7-1.7,12.2-12,12.2h-7.9L319.7,163.8z M325.7,168.7v14.3h2.3
			c4.9,0,5.3-3,5.3-7.1c0-4.7-0.5-7.2-5.8-7.2H325.7z"/>
		<path class="st4" d="M341.6,187.9l7.5-24.1h6.7l7.7,24.1h-6.3l-1.3-4.9h-6.9l-1.2,4.9H341.6z M352.2,169.5l-2.2,8.8h4.5
			L352.2,169.5z"/>
		<path class="st4" d="M375.5,173.6l4.3-9.8h6l-7.5,14.5v9.5h-6v-9.3l-7.8-14.7h6.4L375.5,173.6z"/>
	</g>
	<g>
		<path class="st2" d="M408.4,170.8c0-2.7-1.9-4.2-4.3-4.2c-1.9,0-3.8,1.1-5.1,2.6l-1.6-1.9c1.2-1.3,3.8-3.1,7.3-3.1
			c3.7,0,6.7,2.2,6.7,6.4c0,4.9-6.5,11.8-11.4,15.4h12.5v2.6h-16.3v-2.1C400.8,183.1,408.4,175.5,408.4,170.8z"/>
		<path class="st2" d="M436.2,175.8c0,5.9-1.6,13-9.4,13c-6.1,0-9-4.3-9-11.9c0-6.8,2-12.8,9.3-12.8
			C433.6,164,436.2,168.6,436.2,175.8z M422.5,184.3l7.1-17.2c-0.8-0.4-1.7-0.6-2.8-0.6c-4.9,0-6.1,4.8-6.1,9.5
			C420.8,179.2,421,182.4,422.5,184.3z M433.2,176.2c0-2.8-0.3-5.9-1.9-7.8l-7.2,17.3c0.8,0.4,1.7,0.6,2.9,0.6
			C432.2,186.3,433.2,181,433.2,176.2z"/>
		<path class="st2" d="M441.5,185.9h6.8v-18.4l-6.1,1.2v-2.4l9.1-2.3v21.8h7.1v2.6h-16.8L441.5,185.9L441.5,185.9z"/>
		<path class="st2" d="M471.9,164c6.2,0,8.4,4.7,8.4,11.5c0,8.3-4.9,13.2-12.8,13.2c-0.8,0-1.7,0-2.6-0.1v-2.7
			c0.9,0.1,1.7,0.2,2.6,0.2c5.1,0,9.4-2.9,9.7-9.1c-1.7,1.1-3.8,1.9-6.3,1.9c-4,0-7.1-2.2-7.1-6.7C463.9,167.3,466.8,164,471.9,164z
			 M472,176.5c2.2,0,4.1-1,5.4-2c-0.1-4.3-1.1-8-5.7-8c-3.4,0-4.7,2.6-4.7,5.2C466.9,175,468.5,176.5,472,176.5z"/>
	</g>
</g>
</svg>
