<svg id="Layer_1" data-name="Layer 1" xmlns="http://www.w3.org/2000/svg" viewBox="0 0 196.53 42"><title>Arduino_DAY2020_Logotype_collapsed</title><path d="M28.87,10.15l.2-.3a17.51,17.51,0,0,0-5.3-1.8,16.2,16.2,0,0,0-2.2-.1,13.86,13.86,0,0,0-13.1,8.8l1.9.7A11.91,11.91,0,0,1,21.57,10a12.1,12.1,0,0,1,1.9.1c3.4.5,6.7,2.4,9.7,5.5l1.1-1.1A23.77,23.77,0,0,0,28.87,10.15Z" transform="translate(-0.87 -0.05)" fill="#7fcbcd"/><path d="M15.07,33.75a14.26,14.26,0,0,1-8.3-12.7,13.84,13.84,0,0,1,2.3-7.6,11.6,11.6,0,0,1,2-2.4l.9,1a12.39,12.39,0,0,0-1.8,2.2,11.87,11.87,0,0,0-2.1,6.8,12.72,12.72,0,0,0,7.6,11.5Z" transform="translate(-0.87 -0.05)" fill="#7fcbcd"/><path d="M39.77,22.75l-.6-1.4c-.1-.1-.1-.2-.2-.4-1,1.9-6.4,11.4-15.2,12.6a16.6,16.6,0,0,1-2.2.3,13.37,13.37,0,0,1-5.9-1.3l-.7,1.2a14.35,14.35,0,0,0,6.5,1.4,19.42,19.42,0,0,0,2.4-.2c8.6-1.1,14-8.8,15.9-12.2Z" transform="translate(-0.87 -0.05)" fill="#7fcbcd"/><path d="M41.57,29.25a29.7,29.7,0,0,1-5.7,6l.5.6A31.64,31.64,0,0,0,42,30c3.5,4.8,9.4,10.5,17.8,11.7l.2-1.4c-8.7-1.2-14.5-7.4-17.9-12.6C42,27.45,41.57,29.25,41.57,29.25Z" transform="translate(-0.87 -0.05)" fill="#f26727"/><path d="M64.27,35.15a19.33,19.33,0,0,1-3.4-.1,17.41,17.41,0,0,1-7.5-3.1l-.7,1a17.89,17.89,0,0,0,8.1,3.3,21.05,21.05,0,0,0,2.5.2h1Z" transform="translate(-0.87 -0.05)" fill="#f1c40f"/><path d="M40.47,22.45l-.7.3-.6-1.4a29.72,29.72,0,0,0-4.8-6.8l-1.1,1.1a28.24,28.24,0,0,1,4.3,5.9l2,3.6,1.7-1Z" transform="translate(-0.87 -0.05)" fill="#f26727"/><path d="M63.17,34a16.35,16.35,0,0,1-2.2-.2c-9.1-1.3-14.4-10.5-15.4-12.4l1.4-.7c.6,1.1,5.7,10.3,14.2,11.6a13.4,13.4,0,0,0,2,.1Z" transform="translate(-0.87 -0.05)" fill="#7fcbcd"/><path d="M75.87,17.55a11.88,11.88,0,0,0-3.3-5.3,13.61,13.61,0,0,0-7.4-3.6l.3-1.8a16.1,16.1,0,0,1,8.4,4,14.27,14.27,0,0,1,3.8,6Z" transform="translate(-0.87 -0.05)" fill="#00979d"/><path d="M51.47,11.65l-.9-1a19.58,19.58,0,0,1,10-4.9,21.05,21.05,0,0,1,2.5-.2,16.37,16.37,0,0,1,11.4,4.5l-.9.9a15.3,15.3,0,0,0-10.4-4,16.41,16.41,0,0,0-2.3.2A18.66,18.66,0,0,0,51.47,11.65Z" transform="translate(-0.87 -0.05)" fill="#00979d"/><path d="M44.87,24.35l-4.5-2.2,1.1-2.3a34.2,34.2,0,0,1,8-10.7l1.9-1.7,3.3,3.8-1.9,1.8a33.74,33.74,0,0,0-6.8,9Z" transform="translate(-0.87 -0.05)" fill="#f1c40f"/><path d="M6.57,27.05a15.4,15.4,0,0,1-1.3-6,15.2,15.2,0,0,1,4.7-11,18.31,18.31,0,0,1,3.6-2.6l.7,1.4a12.44,12.44,0,0,0-3.2,2.3A13.65,13.65,0,0,0,6.77,21a14.08,14.08,0,0,0,1.1,5.4Z" transform="translate(-0.87 -0.05)" fill="#00979d"/><path d="M12,12.05l-.9-1A15.35,15.35,0,0,1,21.57,7a16.41,16.41,0,0,1,2.3.2,16.9,16.9,0,0,1,5.6,1.9l-.7,1.2a14.62,14.62,0,0,0-5.1-1.7,15,15,0,0,0-2.2-.2A14,14,0,0,0,12,12.05Z" transform="translate(-0.87 -0.05)" fill="#f1c40f"/><path d="M2.67,21.05h-.9a18.49,18.49,0,0,1,5.9-13.5l.6.6A17.26,17.26,0,0,0,2.67,21.05Z" transform="translate(-0.87 -0.05)" fill="#f1c40f"/><path d="M35.67,6.75a23.17,23.17,0,0,0-11-4.9c-1-.1-2.1-.2-3.1-.2A20.21,20.21,0,0,0,10.27,5l-.6-.9A21.54,21.54,0,0,1,21.57.55c1.1,0,2.2.1,3.2.2a23.81,23.81,0,0,1,11.5,5.1Z" transform="translate(-0.87 -0.05)" fill="#00979d"/><path d="M43.47,14.05l-2.2-1.5c3.5-5,9.6-11.2,18.5-12.5l.4,2.7C52.17,3.85,46.67,9.45,43.47,14.05Z" transform="translate(-0.87 -0.05)" fill="#00979d"/><path d="M46,14.35l-1.6-1.2c3.1-4.1,8.4-9.1,15.9-10.2,1-.1,2-.2,2.9-.2a20.16,20.16,0,0,1,7.3,1.4L69.77,6a18.38,18.38,0,0,0-6.6-1.2,24.52,24.52,0,0,0-2.7.2C53.67,5.85,48.87,10.55,46,14.35Z" transform="translate(-0.87 -0.05)" fill="#7fcbcd"/><path d="M42.87,17.55l-2.2-.9.6-1.6.1-.1c2.8-4.4,9-12.1,18.6-13.5,1-.1,2.1-.2,3.2-.2v2.3a26.35,26.35,0,0,0-2.8.2c-8.3,1.2-13.8,7.4-16.9,12.4Z" transform="translate(-0.87 -0.05)" fill="#7fcbcd"/><path d="M42.87,15.15l-1.1-1.4a36.49,36.49,0,0,0-6.2-6.7l1-1.3a33.56,33.56,0,0,1,6.5,7l1.1,1.3Z" transform="translate(-0.87 -0.05)" fill="#7fcbcd"/><path d="M77.37,7.25a20.47,20.47,0,0,0-14.2-5.6c-1,0-2.1.1-3.1.2l-.2-1.1a17.74,17.74,0,0,1,3.2-.2A21.19,21.19,0,0,1,78,6.45Z" transform="translate(-0.87 -0.05)" fill="#f26727"/><path d="M77.37,34.55a20.47,20.47,0,0,1-14.2,5.6c-1,0-2.1-.1-3.1-.2l-.2,1.1a17.74,17.74,0,0,0,3.2.2A21.19,21.19,0,0,0,78,35.35Z" transform="translate(-0.87 -0.05)" fill="#00979d"/><path d="M24.37,38.35l-.4-2.8c11.4-1.6,17-14.8,17.1-15,.3-.6,6.3-14.9,19.3-16.7l.4,2.8c-11.4,1.6-17,14.8-17.1,15C43.47,22.25,37.37,36.45,24.37,38.35Z" transform="translate(-0.87 -0.05)" fill="#00979d"/><path d="M12.47,35.45l1.2-2.1a15.69,15.69,0,0,0,10.2,1.9l.4,2.5a19.6,19.6,0,0,0,6.9-2.4l-2.1-3.6a15.88,15.88,0,0,1-5.4,1.9,14.92,14.92,0,0,1-2.1.2,13.64,13.64,0,0,1-9.5-3.7,12.1,12.1,0,0,1-2.8-4l-3.6,1.6a17.49,17.49,0,0,0,3.7,5.3l-.2-.1A15.94,15.94,0,0,0,12.47,35.45Z" transform="translate(-0.87 -0.05)" fill="#00979d"/><path d="M21.57,39a18.94,18.94,0,0,1-13.2-5.2l.8-.8a18.08,18.08,0,0,0,12.4,4.9,24.52,24.52,0,0,0,2.7-.2c9.4-1.3,15-9.3,17.6-13.9l.6-1.5,1,.4-.7,1.6c-2.6,4.8-8.6,13.1-18.4,14.5A24.58,24.58,0,0,1,21.57,39Z" transform="translate(-0.87 -0.05)" fill="#00979d"/><path d="M21.57,42.05A22.06,22.06,0,0,1,6.27,36l1.5-1.5A20,20,0,0,0,21.57,40c1,0,2-.1,3-.2a22.42,22.42,0,0,0,10.9-4.9l1.3,1.6a23.83,23.83,0,0,1-11.9,5.4C23.77,42,22.67,42.05,21.57,42.05Z" transform="translate(-0.87 -0.05)" fill="#00979d"/><path d="M24.67,40.35l-.3-1.8c8.4-1.2,14-7.5,17.2-12.5.1-.2,1-1.7,1.3-2.3l1.6.8c-.4.7-1.3,2.3-1.3,2.4h0C39.77,32.45,33.77,39.05,24.67,40.35Z" transform="translate(-0.87 -0.05)" fill="#f1c40f"/><path d="M12.57,35.35a16.52,16.52,0,0,1-8.4-14.3,22.75,22.75,0,0,1,.2-2.6l1.3.2a19.42,19.42,0,0,0-.2,2.4,15.29,15.29,0,0,0,7.7,13.2Z" transform="translate(-0.87 -0.05)" fill="#7fcbcd"/><path d="M6.27,18.75l-2.5-.3a16.9,16.9,0,0,1,7-11.2,18.58,18.58,0,0,1,13.6-3.2,19.81,19.81,0,0,1,3.3.8l-.8,2.4a28.64,28.64,0,0,0-2.8-.7C15.37,5.25,7.57,10.65,6.27,18.75Z" transform="translate(-0.87 -0.05)" fill="#f26727"/><path d="M55.47,32l-.2.3a17.51,17.51,0,0,0,5.3,1.8,16.35,16.35,0,0,0,2.2.2,13.86,13.86,0,0,0,13.1-8.8l-1.9-.7a11.81,11.81,0,0,1-11.2,7.5,12.1,12.1,0,0,1-1.9-.1c-3.4-.5-6.7-2.4-9.7-5.5l-1.1,1.1A26.6,26.6,0,0,0,55.47,32Z" transform="translate(-0.87 -0.05)" fill="#7fcbcd"/><path d="M72.37,30.05l.9,1a14.9,14.9,0,0,1-10.5,4.1,16.41,16.41,0,0,1-2.3-.2,16.9,16.9,0,0,1-5.6-1.9l.7-1.2a14.62,14.62,0,0,0,5.1,1.7,15,15,0,0,0,2.2.2A13.21,13.21,0,0,0,72.37,30.05Z" transform="translate(-0.87 -0.05)" fill="#f1c40f"/><path d="M81.77,21.05h.8a18.78,18.78,0,0,1-5.8,13.5l-.6-.6A17.64,17.64,0,0,0,81.77,21.05Z" transform="translate(-0.87 -0.05)" fill="#f1c40f"/><path d="M78.07,23.35l2.5.4a16.9,16.9,0,0,1-7,11.2A18.58,18.58,0,0,1,60,38.15a16.65,16.65,0,0,1-3.2-.8l.8-2.4a28.64,28.64,0,0,0,2.8.7C69,36.85,76.77,31.45,78.07,23.35Z" transform="translate(-0.87 -0.05)" fill="#f26727"/><path d="M6,36.35a21.23,21.23,0,0,1-5.1-7.6l2.9-1.1a18.73,18.73,0,0,0,4.4,6.5Z" transform="translate(-0.87 -0.05)" fill="#f1c40f"/><path d="M21.57,40.65A20.36,20.36,0,0,1,7.27,35a18.66,18.66,0,0,1-5.9-12.4h0v-1.4l1.8-.1v1.4a17.27,17.27,0,0,0,5.4,11.3,18.91,18.91,0,0,0,13,5.2c.9,0,1.9-.1,2.9-.2l.3,1.8C23.67,40.55,22.57,40.65,21.57,40.65Z" transform="translate(-0.87 -0.05)" fill="#7fcbcd"/><path d="M30,34.25l-.6-1,.5-.3c6.4-3.7,10-10.8,10.7-12.1l.2-.5,1,.5-.2.5c-.7,1.4-4.4,8.8-11.2,12.6Z" transform="translate(-0.87 -0.05)" fill="#f1c40f"/><path d="M44.17,20.35c-.1-.1-.5-1.1-1.2-2.5l.3-.2c-2.7-4.9-8.7-13.3-18.8-14.7-1-.1-2-.2-2.9-.2v1.9a24.52,24.52,0,0,1,2.7.2,28.17,28.17,0,0,1,3.1.7l-.7,2.2c9.3,3,13.9,13.9,14,14,.3.6,6.4,15.1,19.7,17l.5-3.9C49.77,33.35,44.27,20.45,44.17,20.35Z" transform="translate(-0.87 -0.05)" fill="#00979d"/><path d="M80.77,21.05h-1.6A15.07,15.07,0,0,0,74,9.75,16.65,16.65,0,0,0,60.67,6l-.2-1.5A17.94,17.94,0,0,1,75,8.55,16.46,16.46,0,0,1,80.77,21.05Z" transform="translate(-0.87 -0.05)" fill="#f1c40f"/><rect x="18.7" y="14.4" width="4.2" height="13.1" fill="#f1c40f"/><rect x="14.3" y="18.9" width="13.1" height="4.2" fill="#00979d"/><rect x="55.2" y="18.9" width="13.1" height="4.2" fill="#f26727"/><path d="M84.57,23l-1.7-.2A10.87,10.87,0,0,0,83,21a18.83,18.83,0,0,0-5.8-13.6l1.2-1.2A20.36,20.36,0,0,1,84.77,21C84.67,21.65,84.67,22.35,84.57,23Z" transform="translate(-0.87 -0.05)" fill="#7fcbcd"/><path d="M78.87,24l-1.1-.2a12.41,12.41,0,0,0,.3-2.7,13.7,13.7,0,0,0-4.3-10l.8-.8a14.92,14.92,0,0,1,4.7,10.8A28.86,28.86,0,0,1,78.87,24Z" transform="translate(-0.87 -0.05)" fill="#00979d"/><path d="M77,24.25l-2.5-.6a10.68,10.68,0,0,0,.3-2.5c0-6-5.2-10.8-11.5-10.8a12.1,12.1,0,0,0-1.9.1c-.2,0-.3.1-.5.1L60.37,8c.2,0,.4-.1.6-.1a18,18,0,0,1,2.2-.2c7.8,0,14.1,6,14.1,13.4A11.58,11.58,0,0,1,77,24.25Z" transform="translate(-0.87 -0.05)" fill="#f26727"/><path d="M56.07,10.85l-.3-.6c-6,3.3-9.5,9.8-10.1,11.1l-.6,1.3-.7-.3-.3.6,2.4,1.1,1.1-2.4c.6-1.2,5.5-9.7,13.3-11.2l-.2-1.3A15,15,0,0,0,56.07,10.85Z" transform="translate(-0.87 -0.05)" fill="#00979d"/><path d="M63.17,39.55c-1,0-2-.1-3-.2A22.52,22.52,0,0,1,48,33.25l1.6-1.7a20.3,20.3,0,0,0,10.9,5.5c1.1.1,2.1.2,3.2.2l.1,2.3Z" transform="translate(-0.87 -0.05)" fill="#7fcbcd"/><path d="M92.37,16.85,97.32,1h4.41l5.12,15.9h-4.24l-.88-3.18H97.14l-.88,3.18ZM99.44,4.66,98,10.49h3Z" transform="translate(-0.87 -0.05)" fill="#00979d"/><path d="M108.27,1h6.35c4.42,0,6.19,2.12,6.19,5.3A5.22,5.22,0,0,1,118.16,11l3,5.83h-4.59l-2.3-5.12h-2.12v5.12h-3.88V1Zm8.3,5.3c0-1.41-.53-2.12-2.3-2.12h-2.12v4.6h2.12C115.68,8.55,116.57,8,116.57,6.25Z" transform="translate(-0.87 -0.05)" fill="#00979d"/><path d="M123.28,1h5.3c6,0,7.94,2.83,7.94,7.78,0,3.7-1.23,8.12-7.77,8.12h-5.29L123.28,1Zm3.88,3.18v9.54h1.42c3.18,0,3.53-2.12,3.53-4.59,0-3-.35-4.77-3.71-4.77h-1.24Z" transform="translate(-0.87 -0.05)" fill="#00979d"/><path d="M147.47,1h3.71V11.37c0,4.6-3.71,5.66-6.35,5.66-2.83,0-6.19-.89-6.19-5.66V1h3.89v9.72c0,2.65.88,3.18,2.47,3.18,1.77,0,2.47-.89,2.47-3.18V1Z" transform="translate(-0.87 -0.05)" fill="#00979d"/><path d="M154,13.49h4.06V4H154V.78H166.2V4h-4.07v9.53h4.07v3.18H154Z" transform="translate(-0.87 -0.05)" fill="#00979d"/><path d="M172.38,16.85h-3.71V.78h4.24l5.3,9.53V.78h3.71V16.67h-4.07l-5.3-10.24-.17,10.42Z" transform="translate(-0.87 -0.05)" fill="#00979d"/><path d="M197.1,8.9c0,4.59-1.76,8.13-6.88,8.13-4.6,0-6.72-2.83-6.72-8,0-4.77,1.95-8.3,6.72-8.3S197.1,2.72,197.1,8.9ZM193,8.9C193,5,192.69,4,190.39,4c-2.12,0-2.47,1.23-2.47,5.12,0,3.18.35,4.77,2.47,4.77C192.69,13.85,193,12.61,193,8.9Z" transform="translate(-0.87 -0.05)" fill="#00979d"/><g style="isolation:isolate"><path d="M92.9,25.15h5.3c6,0,8,2.83,8,7.77,0,3.71-1.24,8.13-7.77,8.13h-5.3l-.18-15.9Zm3.89,3.18v9.54H98.2c3.18,0,3.53-2.12,3.53-4.6,0-3-.35-4.76-3.71-4.76H96.79Z" transform="translate(-0.87 -0.05)" fill="#9e846d"/><path d="M106.68,41.05l4.94-15.9H116l5.12,15.9h-4.24L116,37.87h-4.59l-.89,3.18Zm7.24-12-1.42,5.82h3Z" transform="translate(-0.87 -0.05)" fill="#9e846d"/><path d="M128.93,31.69l2.83-6.54h3.88l-4.94,9.54v6.18h-3.89V34.69L121.69,25h4.24Z" transform="translate(-0.87 -0.05)" fill="#9e846d"/></g><path d="M149.63,29.3a2.7,2.7,0,0,0-2.9-2.85,4.94,4.94,0,0,0-3.45,1.73l-1.05-1.3a6.91,6.91,0,0,1,4.9-2.13c2.52,0,4.54,1.5,4.54,4.33,0,3.32-4.39,8-7.67,10.42h8.45v1.72h-11v-1.4C144.48,37.65,149.63,32.5,149.63,29.3Z" transform="translate(-0.87 -0.05)" fill="#f26727"/><path d="M167.9,32.67c0,4-1.07,8.8-6.32,8.8-4.13,0-6.1-2.87-6.1-8,0-4.62,1.37-8.67,6.27-8.67C166.17,24.75,167.9,27.83,167.9,32.67Zm-9.2,5.8,4.83-11.62a4.41,4.41,0,0,0-1.93-.4c-3.32,0-4.1,3.25-4.1,6.43C157.5,35,157.68,37.15,158.7,38.47ZM165.88,33c0-1.92-.18-4-1.25-5.25l-4.85,11.67a4.1,4.1,0,0,0,2,.43C165.23,39.8,165.88,36.2,165.88,33Z" transform="translate(-0.87 -0.05)" fill="#f26727"/><path d="M179.13,29.3a2.7,2.7,0,0,0-2.9-2.85,4.94,4.94,0,0,0-3.45,1.73l-1.05-1.3a6.91,6.91,0,0,1,4.9-2.13c2.52,0,4.54,1.5,4.54,4.33,0,3.32-4.39,8-7.67,10.42H182v1.72H171v-1.4C174,37.65,179.13,32.5,179.13,29.3Z" transform="translate(-0.87 -0.05)" fill="#f26727"/><path d="M197.4,32.67c0,4-1.08,8.8-6.32,8.8-4.13,0-6.1-2.87-6.1-8,0-4.62,1.37-8.67,6.27-8.67C195.67,24.75,197.4,27.83,197.4,32.67Zm-9.2,5.8L193,26.85a4.34,4.34,0,0,0-1.92-.4c-3.32,0-4.1,3.25-4.1,6.43C187,35,187.18,37.15,188.2,38.47ZM195.37,33c0-1.92-.17-4-1.25-5.25l-4.84,11.67a4.1,4.1,0,0,0,2,.43C194.72,39.8,195.37,36.2,195.37,33Z" transform="translate(-0.87 -0.05)" fill="#f26727"/></svg>